<?xml version="1.0" encoding="UTF-8"?>
<svg version="1.1" xmlns="http://www.w3.org/2000/svg" width="146" height="136">
<path d="M0 0 C48.18 0 96.36 0 146 0 C146 44.88 146 89.76 146 136 C97.82 136 49.64 136 0 136 C0 91.12 0 46.24 0 0 Z " fill="#FEFCFC" transform="translate(0,0)"/>
<path d="M0 0 C5.46955939 3.15118648 10.49293878 8.56203053 12.75 14.5 C13.58495122 21.39637591 14.08991462 28.47467183 10.1875 34.5 C7.54379672 37.82014379 4.5958271 40.84081743 1.5234375 43.765625 C-0.28669401 45.53588577 -1.92087934 47.38571519 -3.5625 49.3125 C-7.10818813 53.4318725 -10.94458621 57.21249585 -14.8125 61.02734375 C-17.64816056 63.90390326 -20.28338557 66.90767459 -22.875 70.00390625 C-24.25 71.5 -24.25 71.5 -26.25 72.5 C-24.81549165 69.30821891 -23.03157376 66.95407618 -20.75 64.3125 C-11.45753384 53.2665708 -11.45753384 53.2665708 -6.25 40.5 C-7.24 40.995 -7.24 40.995 -8.25 41.5 C-8.32347656 40.36111328 -8.32347656 40.36111328 -8.3984375 39.19921875 C-8.47320312 38.20535156 -8.54796875 37.21148437 -8.625 36.1875 C-8.69460937 35.20136719 -8.76421875 34.21523438 -8.8359375 33.19921875 C-9.08865472 30.28471567 -9.08865472 30.28471567 -11.25 27.5 C-12.24 28.82 -13.23 30.14 -14.25 31.5 C-14.33636719 30.85933594 -14.42273438 30.21867187 -14.51171875 29.55859375 C-15.33702502 24.47803864 -16.28025887 19.84285444 -19.4765625 15.70703125 C-23.21633842 13.16167715 -27.94342325 14.02484355 -32.25 14.5 C-29.14587402 6.99836222 -25.20815042 2.83512891 -17.828125 -0.640625 C-12.07946269 -2.55684577 -5.57288654 -2.45511181 0 0 Z " fill="#B81725" transform="translate(108.25,11.5)"/>
<path d="M0 0 C5.02076481 2.92621262 9.12980013 5.84373362 11.625 11.25 C11.295 12.24 10.965 13.23 10.625 14.25 C9.73748047 14.12818359 9.73748047 14.12818359 8.83203125 14.00390625 C4.13438248 13.57581662 4.13438248 13.57581662 -0.015625 15.45703125 C-3.66260053 20.14756905 -4.59601531 25.47156134 -5.375 31.25 C-6.695 29.93 -8.015 28.61 -9.375 27.25 C-10.37759507 30.25778521 -10.67814642 32.78820647 -10.9375 35.9375 C-11.02128906 36.93136719 -11.10507812 37.92523438 -11.19140625 38.94921875 C-11.28228516 40.08810547 -11.28228516 40.08810547 -11.375 41.25 C-12.365 40.59 -13.355 39.93 -14.375 39.25 C-7.60621691 51.72082885 -7.60621691 51.72082885 0.625 63.25 C0.295 63.91 -0.035 64.57 -0.375 65.25 C-3.23346007 62.42097124 -6.08594984 59.58599221 -8.9375 56.75 C-9.73736328 55.95851562 -10.53722656 55.16703125 -11.36132812 54.3515625 C-17.54749599 48.1906443 -23.55362622 41.90876561 -28.75 34.875 C-29.23210938 34.22789063 -29.71421875 33.58078125 -30.2109375 32.9140625 C-33.93675948 27.58788746 -32.93487922 20.47302533 -32.375 14.25 C-30.34890009 8.29889937 -25.54215601 3.68747243 -20.375 0.25 C-13.91356212 -2.83795394 -6.51421003 -3.13967618 0 0 Z " fill="#B81725" transform="translate(61.375,11.75)"/>
<path d="M0 0 C0 0.66 0 1.32 0 2 C-0.66 2 -1.32 2 -2 2 C-1.505 3.485 -1.505 3.485 -1 5 C-1.66 5.99 -2.32 6.98 -3 8 C-1.02 8 0.96 8 3 8 C3 10.31 3 12.62 3 15 C2.34 15 1.68 15 1 15 C1 15.99 1 16.98 1 18 C-2.875 16.125 -2.875 16.125 -4 15 C-4.99 16.485 -4.99 16.485 -6 18 C-7.9453125 18.29296875 -7.9453125 18.29296875 -10.125 18.1875 C-11.40375 18.125625 -12.6825 18.06375 -14 18 C-14 18.66 -14 19.32 -14 20 C-10.7 20 -7.4 20 -4 20 C-4 21.32 -4 22.64 -4 24 C-5.98 24.99 -5.98 24.99 -8 26 C-8 26.66 -8 27.32 -8 28 C-4.37 28.33 -0.74 28.66 3 29 C2.505 30.485 2.505 30.485 2 32 C0.9378125 31.83242187 -0.124375 31.66484375 -1.21875 31.4921875 C-8.75886486 30.378864 -14.63350893 29.63716324 -22 32 C-25 31.625 -25 31.625 -27 31 C-27 30.34 -27 29.68 -27 29 C-23.37 28.67 -19.74 28.34 -16 28 C-16.99 27.01 -17.98 26.02 -19 25 C-22.64541845 25.23477199 -22.64541845 25.23477199 -26 26 C-26 25.34 -26 24.68 -26 24 C-24.25 22.7109375 -24.25 22.7109375 -22 21.375 C-21.2575 20.92898437 -20.515 20.48296875 -19.75 20.0234375 C-19.1725 19.68570313 -18.595 19.34796875 -18 19 C-20.89234315 18.17361624 -22.88742431 18 -26 18 C-27.58528205 17.85302021 -29.1688237 17.68602074 -30.75 17.5 C-31.94882812 17.36078125 -31.94882812 17.36078125 -33.171875 17.21875 C-33.77515625 17.1465625 -34.3784375 17.074375 -35 17 C-35 16.67 -35 16.34 -35 16 C-33.35 16 -31.7 16 -30 16 C-30 14.02 -30 12.04 -30 10 C-29.34 10 -28.68 10 -28 10 C-27.67 9.34 -27.34 8.68 -27 8 C-23.9375 7.375 -23.9375 7.375 -21 7 C-21.33 6.01 -21.66 5.02 -22 4 C-22.99 4 -23.98 4 -25 4 C-25 3.34 -25 2.68 -25 2 C-21.95872183 1.66274935 -18.91705809 1.33007668 -15.875 1 C-15.0190625 0.90460937 -14.163125 0.80921875 -13.28125 0.7109375 C-8.82977526 0.23154791 -4.48558075 -0.11765458 0 0 Z " fill="#EDDCDE" transform="translate(87,37)"/>
<path d="M0 0 C2.475 0.495 2.475 0.495 5 1 C4.88590407 2.45922693 4.75834456 3.91740598 4.625 5.375 C4.55539063 6.18710938 4.48578125 6.99921875 4.4140625 7.8359375 C4 10 4 10 2 12 C-0.03125 12.22705078 -0.03125 12.22705078 -2.5 12.1953125 C-3.8303125 12.18564453 -3.8303125 12.18564453 -5.1875 12.17578125 C-6.115625 12.15902344 -7.04375 12.14226562 -8 12.125 C-8.928125 12.11597656 -9.85625 12.10695313 -10.8125 12.09765625 C-13.20853768 12.07327796 -15.6041424 12.03743527 -18 12 C-19.44926613 12 -20.89855259 12.01345586 -22.34765625 12.03515625 C-23.69150391 12.04869141 -23.69150391 12.04869141 -25.0625 12.0625 C-25.96097656 12.07410156 -26.85945313 12.08570312 -27.78515625 12.09765625 C-30 12 -30 12 -31 11 C-31.0979057 9.50261876 -31.12974864 8.00057108 -31.125 6.5 C-31.12757812 5.6853125 -31.13015625 4.870625 -31.1328125 4.03125 C-31 2 -31 2 -30 1 C-27.0625 0.8125 -27.0625 0.8125 -24 1 C-23.34 1.66 -22.68 2.32 -22 3 C-19.30193973 3.09303656 -16.6917254 3.09411627 -14 3 C-11.3082746 2.90588373 -8.69806027 2.90696344 -6 3 C-4 5 -4 5 -3.875 7.625 C-3.91625 8.40875 -3.9575 9.1925 -4 10 C-2.35 10 -0.7 10 1 10 C1.020625 8.72125 1.04125 7.4425 1.0625 6.125 C1.07410156 5.40570313 1.08570313 4.68640625 1.09765625 3.9453125 C1.12649242 1.91814596 1.12649242 1.91814596 0 0 Z " fill="#EFEFEF" transform="translate(141,101)"/>
<path d="M0 0 C4.29 0 8.58 0 13 0 C12.01 0.33 11.02 0.66 10 1 C10.33 1.66 10.66 2.32 11 3 C13.16874252 2.49396008 14.99967627 2.00016187 17 1 C17 1.99 17 2.98 17 4 C17.99 4 18.98 4 20 4 C19.67 6.64 19.34 9.28 19 12 C17.68 11.01 16.36 10.02 15 9 C15.33 8.34 15.66 7.68 16 7 C16.33 7.33 16.66 7.66 17 8 C17.33 7.34 17.66 6.68 18 6 C16.02 6.33 14.04 6.66 12 7 C12 7.66 12 8.32 12 9 C10.35 8.67 8.7 8.34 7 8 C7 8.66 7 9.32 7 10 C10.465 9.505 10.465 9.505 14 9 C14 9.99 14 10.98 14 12 C14.66 12.33 15.32 12.66 16 13 C14.125 16.875 14.125 16.875 13 18 C15.64 18.66 18.28 19.32 21 20 C21 20.66 21 21.32 21 22 C19.99839844 21.9278125 18.99679688 21.855625 17.96484375 21.78125 C16.6224047 21.68737314 15.27995627 21.59363031 13.9375 21.5 C11.97103516 21.36078125 11.97103516 21.36078125 9.96484375 21.21875 C6.29924005 21.0165098 2.67009048 20.9618196 -1 21 C-1 20.67 -1 20.34 -1 20 C2.96 19.505 2.96 19.505 7 19 C7 18.34 7 17.68 7 17 C3.04 17.495 3.04 17.495 -1 18 C-1 17.34 -1 16.68 -1 16 C0.98 15.01 2.96 14.02 5 13 C4.67 12.01 4.34 11.02 4 10 C2.02 10.99 2.02 10.99 0 12 C0.33 11.01 0.66 10.02 1 9 C0.34 9 -0.32 9 -1 9 C-1 7.35 -1 5.7 -1 4 C0.32 4 1.64 4 3 4 C3 3.34 3 2.68 3 2 C2.01 2 1.02 2 0 2 C0 1.34 0 0.68 0 0 Z " fill="#D16C74" transform="translate(52,103)"/>
<path d="M0 0 C0.66 0 1.32 0 2 0 C2 1.32 2 2.64 2 4 C5.3 3.67 8.6 3.34 12 3 C12 3.99 12 4.98 12 6 C9.36 6 6.72 6 4 6 C4 6.66 4 7.32 4 8 C7.3 8 10.6 8 14 8 C14 9.32 14 10.64 14 12 C12.02 12.99 12.02 12.99 10 14 C10 14.66 10 15.32 10 16 C13.63 16.33 17.26 16.66 21 17 C20.67 17.99 20.34 18.98 20 20 C18.9378125 19.83242187 17.875625 19.66484375 16.78125 19.4921875 C9.24113514 18.378864 3.36649107 17.63716324 -4 20 C-7 19.625 -7 19.625 -9 19 C-9 18.34 -9 17.68 -9 17 C-5.37 16.67 -1.74 16.34 2 16 C1.01 15.01 0.02 14.02 -1 13 C-4.64541845 13.23477199 -4.64541845 13.23477199 -8 14 C-8 13.34 -8 12.68 -8 12 C-6.69456713 11.22198532 -5.35451753 10.50151673 -4 9.8125 C-1.77339234 8.58782001 -1.77339234 8.58782001 0 7 C0.66923762 3.28743547 0.66923762 3.28743547 0 0 Z " fill="#BA1F2C" transform="translate(69,49)"/>
<path d="M0 0 C0 0.66 0 1.32 0 2 C-0.66 2 -1.32 2 -2 2 C-1.67 2.99 -1.34 3.98 -1 5 C-1.99 6.485 -1.99 6.485 -3 8 C-1.02 8 0.96 8 3 8 C3 10.31 3 12.62 3 15 C2.34 15 1.68 15 1 15 C1 15.99 1 16.98 1 18 C-1.62187494 16.95125002 -2.79371361 16.35068687 -4.25 13.875 C-4.4975 13.25625 -4.745 12.6375 -5 12 C-4.34 11.67 -3.68 11.34 -3 11 C-5.97 10.67 -8.94 10.34 -12 10 C-12 9.67 -12 9.34 -12 9 C-11.05125 8.7525 -10.1025 8.505 -9.125 8.25 C-5.55882089 7.22491484 -5.55882089 7.22491484 -4 3 C-8.95 3.33 -13.9 3.66 -19 4 C-18.67 5.32 -18.34 6.64 -18 8 C-16.35 8 -14.7 8 -13 8 C-13 8.99 -13 9.98 -13 11 C-16.63 10.67 -20.26 10.34 -24 10 C-24 11.32 -24 12.64 -24 14 C-24.99 14 -25.98 14 -27 14 C-27 12.02 -27 10.04 -27 8 C-25.02 7.67 -23.04 7.34 -21 7 C-21.33 6.01 -21.66 5.02 -22 4 C-22.99 4 -23.98 4 -25 4 C-25 3.34 -25 2.68 -25 2 C-21.95872183 1.66274935 -18.91705809 1.33007668 -15.875 1 C-15.0190625 0.90460937 -14.163125 0.80921875 -13.28125 0.7109375 C-8.82977526 0.23154791 -4.48558075 -0.11765458 0 0 Z " fill="#BB222E" transform="translate(87,37)"/>
<path d="M0 0 C0.99 0.33 1.98 0.66 3 1 C3.9075 0.979375 4.815 0.95875 5.75 0.9375 C9 1 9 1 12.375 2 C16.50454176 3.13918393 19.73813667 3.07223497 24 3 C24.66 3.33 25.32 3.66 26 4 C25.4740625 4.928125 25.4740625 4.928125 24.9375 5.875 C24.628125 6.57625 24.31875 7.2775 24 8 C24.33 8.66 24.66 9.32 25 10 C25.66 9.01 26.32 8.02 27 7 C27.99 8.65 28.98 10.3 30 12 C12 12 12 12 9 11 C9 9.02 9 7.04 9 5 C6.525 4.01 6.525 4.01 4 3 C3.67 3.33 3.34 3.66 3 4 C3.061875 5.4540625 3.061875 5.4540625 3.125 6.9375 C3.08375 7.948125 3.0425 8.95875 3 10 C2.01 10.66 1.02 11.32 0 12 C0 8.04 0 4.08 0 0 Z " fill="#EFEFEF" transform="translate(0,101)"/>
<path d="M0 0 C0.33 0 0.66 0 1 0 C1.33 1.65 1.66 3.3 2 5 C2.99 3.68 3.98 2.36 5 1 C7.4021604 5.8043208 7.61122229 10.73103895 8 16 C8.99 15.01 9.98 14.02 11 13 C10.34 14.98 9.68 16.96 9 19 C7.741875 18.835 6.48375 18.67 5.1875 18.5 C1.45845959 18.01094552 -1.35890741 17.78630247 -5 19 C-5 18.01 -5 17.02 -5 16 C-4.34 16 -3.68 16 -3 16 C-3.061875 15.05125 -3.12375 14.1025 -3.1875 13.125 C-3.125625 12.09375 -3.06375 11.0625 -3 10 C-2.01 9.34 -1.02 8.68 0 8 C0.36297936 6.02252878 0.36297936 6.02252878 0.1875 3.875 C0.125625 2.59625 0.06375 1.3175 0 0 Z " fill="#EFE3E4" transform="translate(93,36)"/>
<path d="M0 0 C4.29 0 8.58 0 13 0 C12.01 0.33 11.02 0.66 10 1 C10.33 1.66 10.66 2.32 11 3 C13.16874252 2.49396008 14.99967627 2.00016187 17 1 C17 1.99 17 2.98 17 4 C17.99 4 18.98 4 20 4 C19.67 6.64 19.34 9.28 19 12 C17.68 11.01 16.36 10.02 15 9 C15.33 8.34 15.66 7.68 16 7 C16.33 7.33 16.66 7.66 17 8 C17.33 7.34 17.66 6.68 18 6 C16.02 6.33 14.04 6.66 12 7 C12 7.66 12 8.32 12 9 C11.484375 8.690625 10.96875 8.38125 10.4375 8.0625 C7.33334577 6.70940713 4.34884993 6.38640576 1 6 C1 6.99 1 7.98 1 9 C0.34 9 -0.32 9 -1 9 C-1 7.35 -1 5.7 -1 4 C0.32 4 1.64 4 3 4 C3 3.34 3 2.68 3 2 C2.01 2 1.02 2 0 2 C0 1.34 0 0.68 0 0 Z " fill="#C13742" transform="translate(52,103)"/>
<path d="M0 0 C2.475 0.495 2.475 0.495 5 1 C3.53101702 6.44878084 -0.24329177 9.53936701 -4.1875 13.3125 C-5.5513954 14.64256911 -6.91339915 15.97458093 -8.2734375 17.30859375 C-8.92151367 17.94394043 -9.56958984 18.57928711 -10.23730469 19.23388672 C-12.91712421 21.91890257 -15.38861096 24.75469361 -17.80078125 27.6796875 C-19 29 -19 29 -21 30 C-19.54189138 26.74503025 -17.68972832 24.32705338 -15.375 21.625 C-10.40418697 15.54349248 -6.72790667 8.8807639 -3 2 C-2.34 2 -1.68 2 -1 2 C-0.67 1.34 -0.34 0.68 0 0 Z " fill="#BA1E2B" transform="translate(103,54)"/>
<path d="M0 0 C1.98 0 3.96 0 6 0 C6 4.62 6 9.24 6 14 C4.35 14 2.7 14 1 14 C0.67 14.66 0.34 15.32 0 16 C0 10.72 0 5.44 0 0 Z " fill="#D26D74" transform="translate(78,104)"/>
<path d="M0 0 C1.32 0.33 2.64 0.66 4 1 C4.02688151 2.64574566 4.04634123 4.29161413 4.0625 5.9375 C4.07410156 6.85402344 4.08570313 7.77054687 4.09765625 8.71484375 C4 11 4 11 3 12 C-0.20049657 12.17299981 -2.92954549 11.9097643 -6 11 C-5.34 8.69 -4.68 6.38 -4 4 C-2.68 3.67 -1.36 3.34 0 3 C0 2.01 0 1.02 0 0 Z " fill="#F0F0F0" transform="translate(36,101)"/>
<path d="M0 0 C0.66 0 1.32 0 2 0 C2 1.32 2 2.64 2 4 C5.3 3.67 8.6 3.34 12 3 C12 3.99 12 4.98 12 6 C8.92382812 6.29296875 8.92382812 6.29296875 5.84765625 6.5859375 C5.23792969 6.72257812 4.62820312 6.85921875 4 7 C3.67 7.66 3.34 8.32 3 9 C6.3 9 9.6 9 13 9 C13 9.33 13 9.66 13 10 C9.04 10 5.08 10 1 10 C1 10.66 1 11.32 1 12 C1.66 12.33 2.32 12.66 3 13 C1 14 1 14 -0.8125 13.5 C-3.48166589 12.88990494 -5.36974946 13.34243737 -8 14 C-8 13.34 -8 12.68 -8 12 C-6.69456713 11.22198532 -5.35451753 10.50151673 -4 9.8125 C-1.77339234 8.58782001 -1.77339234 8.58782001 0 7 C0.66923762 3.28743547 0.66923762 3.28743547 0 0 Z " fill="#B30D19" transform="translate(69,49)"/>
<path d="M0 0 C-1.875 4.875 -1.875 4.875 -3 6 C-4.66617115 6.04063832 -6.33388095 6.042721 -8 6 C-7.505 6.45375 -7.01 6.9075 -6.5 7.375 C-5 9 -5 9 -5 11 C-6.98 10.34 -8.96 9.68 -11 9 C-10.34 8.67 -9.68 8.34 -9 8 C-9 7.01 -9 6.02 -9 5 C-10.65 5 -12.3 5 -14 5 C-14.33 3.68 -14.66 2.36 -15 1 C-9.94997778 -0.03590199 -5.12583611 -0.10251672 0 0 Z " fill="#BB343F" transform="translate(83,40)"/>
<path d="M0 0 C0.66 0.66 1.32 1.32 2 2 C1.01 3.485 1.01 3.485 0 5 C1.98 5 3.96 5 6 5 C6 7.31 6 9.62 6 12 C5.34 12 4.68 12 4 12 C4 12.99 4 13.98 4 15 C1.37812506 13.95125002 0.20628639 13.35068687 -1.25 10.875 C-1.4975 10.25625 -1.745 9.6375 -2 9 C-1.34 8.67 -0.68 8.34 0 8 C-2.97 7.67 -5.94 7.34 -9 7 C-9 6.67 -9 6.34 -9 6 C-8.071875 5.7525 -7.14375 5.505 -6.1875 5.25 C-2.83541675 3.93545755 -1.8122197 3.02036616 0 0 Z " fill="#B31E2A" transform="translate(84,40)"/>
<path d="M0 0 C0.33 0 0.66 0 1 0 C1.49230769 7.38461538 1.49230769 7.38461538 -1 10.5 C-1.66 10.995 -2.32 11.49 -3 12 C-2.34 12.33 -1.68 12.66 -1 13 C-1.474375 13.45375 -1.94875 13.9075 -2.4375 14.375 C-4.09027808 15.93258204 -4.09027808 15.93258204 -5 18 C-6.32 17.67 -7.64 17.34 -9 17 C-9.33 15.68 -9.66 14.36 -10 13 C-8.515 13.99 -8.515 13.99 -7 15 C-6.87882812 14.15695313 -6.75765625 13.31390625 -6.6328125 12.4453125 C-6.46523438 11.34960938 -6.29765625 10.25390625 -6.125 9.125 C-5.96257813 8.03445312 -5.80015625 6.94390625 -5.6328125 5.8203125 C-5 3 -5 3 -3 1 C-2.34 2.32 -1.68 3.64 -1 5 C-0.67 3.35 -0.34 1.7 0 0 Z " fill="#F4E1E3" transform="translate(56,36)"/>
<path d="M0 0 C2.64 0 5.28 0 8 0 C7.01 1.32 6.02 2.64 5 4 C7.64 4.66 10.28 5.32 13 6 C13 6.66 13 7.32 13 8 C11.99839844 7.9278125 10.99679688 7.855625 9.96484375 7.78125 C8.6224047 7.68737314 7.27995627 7.59363031 5.9375 7.5 C3.97103516 7.36078125 3.97103516 7.36078125 1.96484375 7.21875 C-1.70075995 7.0165098 -5.32990952 6.9618196 -9 7 C-9 6.67 -9 6.34 -9 6 C-6.36 5.67 -3.72 5.34 -1 5 C-1 4.34 -1 3.68 -1 3 C0.65 2.67 2.3 2.34 4 2 C2.68 1.34 1.36 0.68 0 0 Z " fill="#BC2430" transform="translate(60,117)"/>
<path d="M0 0 C2.125 0.375 2.125 0.375 4 1 C3.67 1.33 3.34 1.66 3 2 C3.66 2.33 4.32 2.66 5 3 C5.40729228 5.32156597 5.74438677 7.6568787 6 10 C3.125 10.1875 3.125 10.1875 0 10 C-2.14915785 6.77626323 -2.38286803 5.73296326 -2 2 C-1.34 1.34 -0.68 0.68 0 0 Z " fill="#F6F6F6" transform="translate(4,103)"/>
<path d="M0 0 C2.375 -0.1875 2.375 -0.1875 5 0 C5.66 0.99 6.32 1.98 7 3 C7.99 3 8.98 3 10 3 C10 4.98 10 6.96 10 9 C9.4225 8.525625 8.845 8.05125 8.25 7.5625 C6.07417916 6.0515133 4.57397552 5.45963849 2 5 C2 5.99 2 6.98 2 8 C2.99 8.33 3.98 8.66 5 9 C3.35 9 1.7 9 0 9 C0 6.03 0 3.06 0 0 Z " fill="#B72835" transform="translate(40,44)"/>
<path d="M0 0 C3.3 0 6.6 0 10 0 C5 5 5 5 2.75 7.125 C0.77556277 8.97977175 0.77556277 8.97977175 0 12 C3.3 12 6.6 12 10 12 C10 10.68 10 9.36 10 8 C10.66 8 11.32 8 12 8 C11.67 9.65 11.34 11.3 11 13 C7.04 13 3.08 13 -1 13 C-1.33 11.68 -1.66 10.36 -2 9 C-0.56640625 7.078125 -0.56640625 7.078125 1.4375 5.25 C2.09621094 4.63640625 2.75492187 4.0228125 3.43359375 3.390625 C3.95050781 2.93171875 4.46742187 2.4728125 5 2 C3.35 1.67 1.7 1.34 0 1 C0 0.67 0 0.34 0 0 Z " fill="#B71923" transform="translate(88,111)"/>
<path d="M0 0 C3.63 0.33 7.26 0.66 11 1 C11 2.32 11 3.64 11 5 C7.51195905 7.32536063 6.09859246 7.33457898 2 7 C-0.375 6 -0.375 6 -2 5 C-2 4.34 -2 3.68 -2 3 C-1.34 2.67 -0.68 2.34 0 2 C0 1.34 0 0.68 0 0 Z " fill="#DE949A" transform="translate(72,56)"/>
<path d="M0 0 C0.99 0.33 1.98 0.66 3 1 C3 3.64 3 6.28 3 9 C-0.75 10.125 -0.75 10.125 -3 9 C-3 7.02 -3 5.04 -3 3 C-2.01 2.67 -1.02 2.34 0 2 C0 1.34 0 0.68 0 0 Z " fill="#F4F4F4" transform="translate(140,102)"/>
<path d="M0 0 C1.98 0 3.96 0 6 0 C5.25 5.75 5.25 5.75 3 8 C2.34 7.34 1.68 6.68 1 6 C0.01 6.66 -0.98 7.32 -2 8 C-2.66 7.01 -3.32 6.02 -4 5 C-3.67 4.01 -3.34 3.02 -3 2 C-2.34 2.33 -1.68 2.66 -1 3 C-0.67 2.01 -0.34 1.02 0 0 Z " fill="#F6F6F6" transform="translate(26,104)"/>
<path d="M0 0 C0.66 0 1.32 0 2 0 C2.33 1.32 2.66 2.64 3 4 C6.465 3.505 6.465 3.505 10 3 C9.34 4.65 8.68 6.3 8 8 C4.98146205 8 2.22918921 7.85049285 -0.75 7.5 C-1.54921875 7.4071875 -2.3484375 7.314375 -3.171875 7.21875 C-3.77515625 7.1465625 -4.3784375 7.074375 -5 7 C-5 6.67 -5 6.34 -5 6 C-3.35 6 -1.7 6 0 6 C0 4.02 0 2.04 0 0 Z " fill="#D8A7AB" transform="translate(57,47)"/>
<path d="M0 0 C0.33 0 0.66 0 1 0 C1.08086147 1.79093191 1.13912702 3.58289628 1.1875 5.375 C1.22230469 6.37273438 1.25710937 7.37046875 1.29296875 8.3984375 C1.19628906 9.25695313 1.09960938 10.11546875 1 11 C0.01 11.66 -0.98 12.32 -2 13 C-4.6875 12.125 -4.6875 12.125 -7 11 C-7.66 12.32 -8.32 13.64 -9 15 C-8.43768609 11.06380262 -7.38314183 8.20807554 -5 5 C-4.01 5 -3.02 5 -2 5 C-2 6.32 -2 7.64 -2 9 C-2.99 9.33 -3.98 9.66 -5 10 C-3.35 10 -1.7 10 0 10 C0 6.7 0 3.4 0 0 Z " fill="#AF1320" transform="translate(110,43)"/>
<path d="M0 0 C0.33 0.66 0.66 1.32 1 2 C1.66 2.33 2.32 2.66 3 3 C2.57589844 3.4125 2.15179688 3.825 1.71484375 4.25 C-2.2377245 8.14175951 -5.94255478 12.15845166 -9.51953125 16.3984375 C-11 18 -11 18 -13 19 C-11.474663 15.57787087 -9.44554788 12.9425709 -7.0625 10.0625 C-4.3928317 6.83394787 -2.07770878 3.64087527 0 0 Z " fill="#C23A46" transform="translate(95,65)"/>
<path d="M0 0 C-0.350625 0.61875 -0.70125 1.2375 -1.0625 1.875 C-1.5265625 2.926875 -1.5265625 2.926875 -2 4 C-1.67 4.66 -1.34 5.32 -1 6 C-0.34 5.01 0.32 4.02 1 3 C1.99 4.65 2.98 6.3 4 8 C1.69 8 -0.62 8 -3 8 C-4.32 5.36 -5.64 2.72 -7 0 C-4.3333581 -1.33332095 -2.83319697 -0.67102033 0 0 Z " fill="#EAEAEA" transform="translate(26,105)"/>
<path d="M0 0 C0.33 0 0.66 0 1 0 C1 2.97 1 5.94 1 9 C-0.32 9 -1.64 9 -3 9 C-2.67 8.34 -2.34 7.68 -2 7 C-1.34 7.33 -0.68 7.66 0 8 C0 6.68 0 5.36 0 4 C-0.99 4 -1.98 4 -3 4 C-3.33 4.66 -3.66 5.32 -4 6 C-5.30915279 7.03145371 -6.64082143 8.03542166 -8 9 C-8 7.02 -8 5.04 -8 3 C-5.36 2.67 -2.72 2.34 0 2 C0 1.34 0 0.68 0 0 Z " fill="#BC313D" transform="translate(108,44)"/>
<path d="M0 0 C0.33 0 0.66 0 1 0 C1 2.31 1 4.62 1 7 C0.34 7 -0.32 7 -1 7 C-1 7.99 -1 8.98 -1 10 C-3.62187494 8.95125002 -4.79371361 8.35068687 -6.25 5.875 C-6.4975 5.25625 -6.745 4.6375 -7 4 C-5.35 3.67 -3.7 3.34 -2 3 C-2 3.99 -2 4.98 -2 6 C-1.34 6 -0.68 6 0 6 C0 4.02 0 2.04 0 0 Z " fill="#CB727A" transform="translate(89,45)"/>
<path d="M0 0 C2.64 0 5.28 0 8 0 C7.34 1.65 6.68 3.3 6 5 C4.35 5 2.7 5 1 5 C0.67 3.35 0.34 1.7 0 0 Z " fill="#F5EAEB" transform="translate(75,40)"/>
<path d="M0 0 C0 0.66 0 1.32 0 2 C-3.64429796 4.38825352 -6.0693436 3.94295451 -10.25 3.125 C-11.86648437 2.81949219 -11.86648437 2.81949219 -13.515625 2.5078125 C-14.33546875 2.34023438 -15.1553125 2.17265625 -16 2 C-16 1.67 -16 1.34 -16 1 C-10.65097076 0.40801257 -5.39115154 -0.14187241 0 0 Z " fill="#C74A54" transform="translate(87,37)"/>
<path d="M0 0 C2.64 0 5.28 0 8 0 C7 3 7 3 6 4 C3 4 0 4 -3 4 C-3 3.34 -3 2.68 -3 2 C-0.525 2.495 -0.525 2.495 2 3 C2 2.34 2 1.68 2 1 C1.34 0.67 0.68 0.34 0 0 Z " fill="#F8EAEB" transform="translate(62,109)"/>
<path d="M0 0 C3.63 0 7.26 0 11 0 C9.68 1.65 8.36 3.3 7 5 C5.68 4.67 4.36 4.34 3 4 C3 3.34 3 2.68 3 2 C2.01 1.34 1.02 0.68 0 0 Z " fill="#E4A8AD" transform="translate(59,102)"/>
<path d="M0 0 C0.90105469 0.11085938 1.80210938 0.22171875 2.73046875 0.3359375 C3.76107422 0.47902344 3.76107422 0.47902344 4.8125 0.625 C4.4825 1.615 4.1525 2.605 3.8125 3.625 C-2.1275 2.635 -2.1275 2.635 -8.1875 1.625 C-4.73535147 -0.67643236 -3.95270676 -0.51333854 0 0 Z " fill="#C23A44" transform="translate(85.1875,65.375)"/>
<path d="M0 0 C0.66 0 1.32 0 2 0 C1.67 1.32 1.34 2.64 1 4 C3.97 4 6.94 4 10 4 C10 4.33 10 4.66 10 5 C8.96939453 5.05607422 8.96939453 5.05607422 7.91796875 5.11328125 C6.56638672 5.21189453 6.56638672 5.21189453 5.1875 5.3125 C3.84751953 5.39951172 3.84751953 5.39951172 2.48046875 5.48828125 C-0.30604 6.06313581 -1.24135754 6.8206856 -3 9 C-2.44271087 5.65626525 -1.64826111 2.96687001 0 0 Z " fill="#B81B24" transform="translate(89,102)"/>
<path d="M0 0 C2.64 0.33 5.28 0.66 8 1 C8.33 1.99 8.66 2.98 9 4 C5.7 4.33 2.4 4.66 -1 5 C0.32 4.67 1.64 4.34 3 4 C3 3.34 3 2.68 3 2 C2.01 2 1.02 2 0 2 C0 1.34 0 0.68 0 0 Z " fill="#DA888F" transform="translate(52,103)"/>
<path d="M0 0 C0.33 0.66 0.66 1.32 1 2 C1.66 2.33 2.32 2.66 3 3 C2.525625 3.45375 2.05125 3.9075 1.5625 4.375 C-0.09027808 5.93258204 -0.09027808 5.93258204 -1 8 C-2.32 7.67 -3.64 7.34 -5 7 C-5.33 5.68 -5.66 4.36 -6 3 C-4.515 3.99 -4.515 3.99 -3 5 C-2.01 3.35 -1.02 1.7 0 0 Z " fill="#E6D6D7" transform="translate(52,46)"/>
<path d="M0 0 C2.31 0 4.62 0 7 0 C7 0.66 7 1.32 7 2 C5.68 2 4.36 2 3 2 C3 3.32 3 4.64 3 6 C2.01 6 1.02 6 0 6 C0 4.02 0 2.04 0 0 Z " fill="#B93641" transform="translate(60,45)"/>
<path d="M0 0 C1.98 0.495 1.98 0.495 4 1 C3.67 2.65 3.34 4.3 3 6 C1.68 5.67 0.36 5.34 -1 5 C-0.67 3.35 -0.34 1.7 0 0 Z " fill="#F6E4E5" transform="translate(93,13)"/>
<path d="M0 0 C1.98 0.495 1.98 0.495 4 1 C3.67 2.65 3.34 4.3 3 6 C1.68 5.67 0.36 5.34 -1 5 C-0.67 3.35 -0.34 1.7 0 0 Z " fill="#F6E4E5" transform="translate(54,13)"/>
<path d="M0 0 C2.625 0.9375 2.625 0.9375 5 2 C5 2.66 5 3.32 5 4 C2.69 4.33 0.38 4.66 -2 5 C-2 3.68 -2 2.36 -2 1 C-1.34 0.67 -0.68 0.34 0 0 Z " fill="#F7E5E7" transform="translate(66,61)"/>
<path d="M0 0 C0.66 0 1.32 0 2 0 C2 1.32 2 2.64 2 4 C4.64 4 7.28 4 10 4 C10 4.33 10 4.66 10 5 C7.36 5 4.72 5 2 5 C1.67 6.32 1.34 7.64 1 9 C0.34 8.67 -0.32 8.34 -1 8 C-0.67 7.34 -0.34 6.68 0 6 C0.039992 4.00039988 0.04346799 1.99952758 0 0 Z " fill="#BC3D48" transform="translate(69,49)"/>
<path d="M0 0 C0.99 0.33 1.98 0.66 3 1 C3.99 0.67 4.98 0.34 6 0 C6.33 1.65 6.66 3.3 7 5 C5 5 3 5 1 5 C0.67 3.35 0.34 1.7 0 0 Z " fill="#FAFAFA" transform="translate(93,47)"/>
<path d="M0 0 C1.98 0.495 1.98 0.495 4 1 C4 2.65 4 4.3 4 6 C3.67 5.34 3.34 4.68 3 4 C2.34 4 1.68 4 1 4 C1.33 4.99 1.66 5.98 2 7 C1.01 6.67 0.02 6.34 -1 6 C-0.67 4.02 -0.34 2.04 0 0 Z " fill="#FAFAFA" transform="translate(124,105)"/>
<path d="M0 0 C1.65 0 3.3 0 5 0 C5.33 1.32 5.66 2.64 6 4 C4.35 4 2.7 4 1 4 C0.67 2.68 0.34 1.36 0 0 Z " fill="#F3E9EA" transform="translate(68,41)"/>
<path d="M0 0 C2.97 0.33 5.94 0.66 9 1 C4.82091936 3.08954032 4.19589427 3.16552619 0 2 C0 1.34 0 0.68 0 0 Z " fill="#C74952" transform="translate(60,66)"/>
<path d="M0 0 C3.625 0.375 3.625 0.375 7 1 C7 1.66 7 2.32 7 3 C4.03 2.67 1.06 2.34 -2 2 C-1.34 1.34 -0.68 0.68 0 0 Z " fill="#CC5B64" transform="translate(66,122)"/>
<path d="M0 0 C0 0.66 0 1.32 0 2 C-1.98 2.33 -3.96 2.66 -6 3 C-6 2.01 -6 1.02 -6 0 C-3.50907189 -1.24546405 -2.58919267 -0.7767578 0 0 Z " fill="#F2D7DA" transform="translate(59,120)"/>
<path d="M0 0 C0.99 0.33 1.98 0.66 3 1 C2.34 1 1.68 1 1 1 C1.33 2.32 1.66 3.64 2 5 C-0.31 5 -2.62 5 -5 5 C-4.34 4.34 -3.68 3.68 -3 3 C-2.01 3 -1.02 3 0 3 C0 2.01 0 1.02 0 0 Z " fill="#BE2D37" transform="translate(71,62)"/>
<path d="M0 0 C-0.33 0.66 -0.66 1.32 -1 2 C-3.32156597 2.40729228 -5.6568787 2.74438677 -8 3 C-8 2.34 -8 1.68 -8 1 C-4.93251126 -0.86240388 -3.40254489 -1.2151946 0 0 Z " fill="#BF2F3A" transform="translate(69,60)"/>
<path d="M0 0 C0.33 0.66 0.66 1.32 1 2 C2.65 2 4.3 2 6 2 C6 2.99 6 3.98 6 5 C3.69 4.67 1.38 4.34 -1 4 C-0.67 2.68 -0.34 1.36 0 0 Z " fill="#B42936" transform="translate(68,43)"/>
</svg>
